PathFileType	4	(X/Y/Z)	 s03c0403.trc
DataRate	CameraRate	NumFrames	NumMarkers	Units	OrigDataRate	OrigDataStartFrame	OrigNumFrames
200	200	4	52	mm	200	1001	2000
Frame#	Time	racr			lacr			c7			jug			rlel			rdr			llel			ldr			s2			lic			ric			lasi			rasi			rpsi			lpsi			rgt			lgt			rth1			rth2			rth3			rth4			rlfc			rmfc			rsh1			rsh2			rsh3			rsh4			rlmal			rmmal			rcal			rtoe			rmt5			rmt1			lth1			lth2			lth4			lth3			llfc			lmfc			lsh1			lsh2			lsh3			lsh4			llmal			lmmal			lcal			ltoe			lmt1			lmt5			SBIKE			LBIKE			RBIKE			
		X1	Y1	Z1	X2	Y2	Z2	X3	Y3	Z3	X4	Y4	Z4	X5	Y5	Z5	X6	Y6	Z6	X7	Y7	Z7	X8	Y8	Z8	X9	Y9	Z9	X10	Y10	Z10	X11	Y11	Z11	X12	Y12	Z12	X13	Y13	Z13	X14	Y14	Z14	X15	Y15	Z15	X16	Y16	Z16	X17	Y17	Z17	X18	Y18	Z18	X19	Y19	Z19	X20	Y20	Z20	X21	Y21	Z21	X22	Y22	Z22	X23	Y23	Z23	X24	Y24	Z24	X25	Y25	Z25	X26	Y26	Z26	X27	Y27	Z27	X28	Y28	Z28	X29	Y29	Z29	X30	Y30	Z30	X31	Y31	Z31	X32	Y32	Z32	X33	Y33	Z33	X34	Y34	Z34	X35	Y35	Z35	X36	Y36	Z36	X37	Y37	Z37	X38	Y38	Z38	X39	Y39	Z39	X40	Y40	Z40	X41	Y41	Z41	X42	Y42	Z42	X43	Y43	Z43	X44	Y44	Z44	X45	Y45	Z45	X46	Y46	Z46	X47	Y47	Z47	X48	Y48	Z48	X49	Y49	Z49	X50	Y50	Z50	X51	Y51	Z51	X52	Y52	Z52	
1001	5.0050	848.331983	1380.429822	-37.696340	839.146712	1375.850984	-376.189562	813.218641	1487.419403	-203.719321	785.774283	1313.796444	-203.008521	634.576940	1201.829025	98.524422	751.926502	977.792800	7.384895	641.499460	1221.763965	-541.383287	744.221161	982.545907	-444.728082	248.245144	1292.496761	-182.142601	411.517217	1297.138854	-380.431943	427.044675	1299.567308	-12.880007	422.964660	1222.671199	-340.929156	443.592440	1225.407696	-64.255713	286.918604	1340.185589	-139.005139	285.753360	1337.432913	-221.587462	374.341390	1197.671593	5.217021	335.993117	1181.752504	-387.652501	450.577869	1056.320889	10.466538	515.468154	996.549456	1.515493	543.681463	916.079309	-4.284926	542.634059	1016.092759	-13.671355	578.793351	792.302596	-29.686142	564.433047	774.343578	-145.130509	433.048066	704.840311	-7.216010	366.195666	649.414458	-24.275702	278.698329	632.840626	-26.224107	381.090551	626.981265	-51.931839	155.996691	587.064151	-49.213582	182.453021	575.678120	-132.982672	89.095201	615.306517	-85.900049	226.046392	338.044283	-118.652478	159.958554	428.848504	-39.563581	180.868913	424.299271	-154.927515	389.830604	1027.906991	-414.734504	438.145992	956.135410	-417.679767	472.592422	968.325628	-413.502068	445.284196	867.457840	-408.039264	502.665953	751.056844	-393.208912	508.356662	732.942039	-275.203626	419.976727	599.920376	-426.438739	406.500660	517.088625	-412.539673	351.135756	445.827378	-412.952781	437.305824	504.917919	-390.603929	292.116339	333.207642	-404.102680	328.566039	339.587211	-310.121321	216.839464	305.557908	-361.143845	513.134290	211.020997	-353.732832	420.366741	236.985760	-312.625617	393.075898	222.703402	-429.873095	-210.401872	947.537914	-229.186751	-4.434423	83.794704	-433.039522	-8.688163	81.119555	-32.678995	
1002	5.0100	846.413899	1382.365349	-35.179677	839.192845	1376.445064	-374.224671	811.949015	1488.795934	-201.696649	785.248823	1315.009781	-200.623597	633.044473	1201.355775	99.318472	751.681443	977.808995	7.615333	640.848333	1221.301782	-539.173364	744.242922	982.465349	-444.495163	247.663191	1290.810871	-183.732916	412.596792	1295.790047	-381.365914	425.662824	1298.777205	-14.267416	424.187601	1221.281623	-341.710929	442.959176	1225.184541	-65.441143	285.833883	1338.906935	-140.300662	285.810898	1335.187815	-224.449336	374.894212	1198.002896	4.515949	336.190161	1178.847581	-387.927541	453.183834	1058.342363	10.291530	519.332848	999.892986	1.960664	549.318628	920.018820	-3.656237	546.047775	1019.989280	-13.740485	586.284442	796.841978	-28.903037	573.107083	778.878297	-145.011823	440.085998	710.877183	-7.253620	372.603446	656.024120	-24.521116	285.121285	640.575712	-26.797148	387.385350	633.553048	-52.060479	162.318350	595.648404	-49.460668	188.712042	584.231922	-133.674135	95.067454	623.690861	-86.289637	233.645850	347.316615	-118.863084	167.266868	437.825536	-39.820337	187.446220	433.725375	-154.600424	386.701784	1023.898231	-414.232463	433.437919	951.153356	-417.089335	468.134066	962.697922	-413.240430	438.816786	862.424843	-406.743998	494.544576	745.954364	-391.765302	500.281323	727.845156	-274.217443	413.611661	594.222868	-425.823116	400.861380	511.234981	-412.401312	346.144733	439.489389	-413.229029	431.625545	499.244701	-390.131397	287.684024	326.664128	-404.638860	323.672113	332.247719	-310.882737	212.530816	300.361771	-362.110308	506.643956	199.401396	-353.227333	414.569207	227.999709	-312.809520	387.174969	213.598682	-429.880468	-210.441920	947.506142	-229.171204	-4.456539	83.775588	-433.034055	-8.684075	81.122454	-32.691842	
1003	5.0150	844.574674	1383.856424	-32.386931	839.205199	1377.210402	-372.276310	810.768069	1490.108246	-199.646467	784.674699	1316.181857	-198.345461	631.577158	1200.722307	100.178129	751.445986	977.811001	7.895133	639.793845	1220.718810	-536.340167	744.319363	982.470191	-444.328842	247.613837	1290.359612	-185.875537	413.793357	1294.643443	-382.357741	424.086163	1298.484004	-15.069024	425.333599	1219.943788	-342.395008	442.489980	1226.243062	-66.230738	284.736505	1337.720292	-141.921394	286.533302	1333.510545	-228.563999	375.146602	1198.492427	3.727904	336.475773	1176.077058	-388.191712	455.629255	1060.535007	10.068415	523.057673	1003.687535	2.349094	554.806250	924.203041	-3.117450	549.284777	1024.014088	-14.037347	593.595922	801.582700	-28.026006	581.664937	783.591867	-144.832293	447.134968	717.066352	-7.270300	379.101789	662.834005	-24.857315	291.604050	648.053456	-27.317379	394.014245	639.985535	-52.090279	168.975921	603.758108	-49.802847	195.360738	592.429722	-134.401248	101.450010	631.613001	-86.844348	241.563634	356.017310	-119.052155	174.815783	446.382282	-40.192791	195.062852	442.219073	-154.666188	383.606366	1020.390102	-413.782417	428.900904	946.475521	-415.807179	463.717442	957.400090	-413.029507	432.331941	857.842046	-405.594092	486.300387	741.112338	-390.306041	491.969710	722.955406	-273.303755	406.911499	588.978551	-425.164019	394.910347	505.843744	-412.238789	340.860585	433.599088	-413.515777	425.416393	494.414629	-390.313252	283.014401	320.597063	-405.151987	318.466864	325.385059	-311.738628	207.955305	295.834949	-362.982150	499.681758	188.194882	-352.655056	408.153429	219.275499	-312.726017	380.863929	205.018455	-429.942216	-210.479324	947.492663	-229.162839	-4.449823	83.783990	-433.032912	-8.694307	81.113096	-32.680961	
1004	5.0200	842.889326	1386.058449	-28.549774	838.913563	1377.994741	-370.302652	809.633289	1491.333313	-197.448990	784.171220	1317.276977	-194.898512	630.268924	1200.135685	101.084515	751.251016	977.776198	8.256825	639.322668	1220.495168	-534.016039	744.448791	982.547064	-444.300011	247.204990	1288.712685	-187.850617	415.120910	1293.605287	-383.202330	422.420520	1298.378507	-15.725243	426.571899	1218.682131	-342.959604	442.017709	1226.452962	-66.597865	283.622282	1336.482889	-144.286095	284.274700	1332.854359	-221.019688	375.052455	1199.178650	2.908366	336.978295	1173.525477	-388.611215	457.912334	1062.866431	9.766484	526.698905	1007.367711	2.969369	560.167177	928.745788	-2.639724	552.352085	1028.063001	-13.739975	600.529672	806.623008	-27.035943	591.779070	790.966844	-151.212054	454.203417	723.251955	-7.291022	385.898764	669.473251	-25.129856	298.321797	655.312477	-27.901910	400.949619	646.624593	-51.957082	175.907843	611.517687	-50.120590	202.347601	600.153559	-135.209000	107.976091	638.932768	-87.374932	250.117169	364.293924	-119.187567	183.166793	454.466846	-40.237476	203.010605	449.485254	-155.276821	380.603931	1017.354407	-413.414586	424.222461	942.454234	-415.423130	459.333416	952.573102	-412.881545	425.742070	853.773089	-404.810150	477.913607	736.550275	-388.997861	483.406157	718.328492	-272.480896	399.499577	584.581450	-425.031309	388.538293	500.970756	-412.035576	335.174416	428.252927	-413.749349	419.079628	489.690234	-389.908125	277.952434	315.023953	-405.608579	312.993911	319.016449	-312.702852	203.058469	292.021456	-364.004966	492.197489	177.584687	-351.898769	401.345538	211.194132	-312.871190	374.068529	196.902122	-430.024557	-210.505726	947.465384	-229.154098	-4.440966	83.794012	-433.018593	-8.691940	81.094729	-32.678959	
